<svg xmlns="http://www.w3.org/2000/svg" version="1.1" xmlns:xlink="http://www.w3.org/1999/xlink" xmlns:svgjs="http://svgjs.dev/svgjs" width="1440" height="250" preserveAspectRatio="none" viewBox="0 0 1440 250"><g mask="url(&quot;#SvgjsMask1011&quot;)" fill="none"><rect width="1440" height="250" x="0" y="0" fill="#0e2a47"></rect><path d="M8 250L258 0L535.5 0L285.5 250z" fill="url(&quot;#SvgjsLinearGradient1012&quot;)"></path><path d="M272.6 250L522.6 0L873.6 0L623.6 250z" fill="url(&quot;#SvgjsLinearGradient1012&quot;)"></path><path d="M489.20000000000005 250L739.2 0L793.2 0L543.2 250z" fill="url(&quot;#SvgjsLinearGradient1012&quot;)"></path><path d="M722.8000000000001 250L972.8000000000001 0L1032.8000000000002 0L782.8000000000001 250z" fill="url(&quot;#SvgjsLinearGradient1012&quot;)"></path><path d="M1426 250L1176 0L1102.5 0L1352.5 250z" fill="url(&quot;#SvgjsLinearGradient1013&quot;)"></path><path d="M1185.4 250L935.4000000000001 0L632.4000000000001 0L882.4000000000001 250z" fill="url(&quot;#SvgjsLinearGradient1013&quot;)"></path><path d="M959.8 250L709.8 0L448.79999999999995 0L698.8 250z" fill="url(&quot;#SvgjsLinearGradient1013&quot;)"></path><path d="M694.1999999999999 250L444.19999999999993 0L252.19999999999993 0L502.19999999999993 250z" fill="url(&quot;#SvgjsLinearGradient1013&quot;)"></path><path d="M1239.333165773982 250L1440 49.33316577398202L1440 250z" fill="url(&quot;#SvgjsLinearGradient1012&quot;)"></path><path d="M0 250L200.66683422601798 250L 0 49.33316577398202z" fill="url(&quot;#SvgjsLinearGradient1013&quot;)"></path></g><defs><mask id="SvgjsMask1011"><rect width="1440" height="250" fill="#ffffff"></rect></mask><linearGradient x1="0%" y1="100%" x2="100%" y2="0%" id="SvgjsLinearGradient1012"><stop stop-color="rgba(15, 70, 185, 0.2)" offset="0"></stop><stop stop-opacity="0" stop-color="rgba(15, 70, 185, 0.2)" offset="0.66"></stop></linearGradient><linearGradient x1="100%" y1="100%" x2="0%" y2="0%" id="SvgjsLinearGradient1013"><stop stop-color="rgba(15, 70, 185, 0.2)" offset="0"></stop><stop stop-opacity="0" stop-color="rgba(15, 70, 185, 0.2)" offset="0.66"></stop></linearGradient></defs></svg>